<?xml version="1.0" encoding="utf-8"?>
<!-- Generator: Adobe Illustrator 22.0.1, SVG Export Plug-In . SVG Version: 6.00 Build 0)  -->
<svg version="1.1" xmlns="http://www.w3.org/2000/svg" xmlns:xlink="http://www.w3.org/1999/xlink" x="0px" y="0px"
	 viewBox="0 0 684.6 118.8" style="enable-background:new 0 0 684.6 118.8;" xml:space="preserve">
<style type="text/css">
	.st0{display:none;}
	.st1{display:inline;fill:#202446;}
	.st2{fill:#FFFFFF;}
	.st3{fill:#E83D44;}
	.st4{fill:#4B2C57;}
	.st5{fill:#E3F3F1;}
</style>
<g id="FOND" class="st0">
	<rect x="-100" y="-69" class="st1" width="884.7" height="266.1"/>
</g>
<g id="Logo">
	<g>
		<g>
			<path class="st2" d="M384.8,57.4c-1.2,4.6-2.8,9.2-5,13.7c-2.1,4.5-4.8,8.9-7.9,13c-3.1,4.1-6.6,7.8-10.6,10.9
				c-3.9,3.1-8.3,5.6-13,7.5c-4.7,1.9-9.7,2.8-15,2.8c-1.1,0-2.2-0.1-3.3-0.2c-1.1-0.1-2.2-0.3-3.3-0.4c2.1-10.9,4.2-21.5,6.3-31.8
				c0.8-4.3,1.6-8.9,2.5-13.5c0.9-4.7,1.7-9.3,2.5-13.9c0.8-4.6,1.6-9,2.3-13.1c0.7-4.2,1.4-8,1.8-11.4c3.4-0.6,6.8-1.2,10.3-1.8
				c3.5-0.6,7-0.8,10.6-0.8c4.3,0,7.9,0.7,10.8,2c3,1.3,5.4,3.2,7.2,5.6c1.9,2.4,3.2,5.1,4.1,8.3c0.9,3.2,1.3,6.5,1.3,10.1
				C386.6,48.4,386,52.8,384.8,57.4z M355.9,48.5c-0.9,4.3-1.9,8.6-2.8,12.9c-0.9,4.3-1.9,8.9-2.8,13.6c-0.9,4.7-1.9,9.9-2.7,15.5
				c1.9-1.3,3.7-3,5.5-5.1c1.8-2.2,3.5-4.7,5-7.5c1.6-2.8,3-5.8,4.3-9c1.3-3.2,2.4-6.2,3.4-9.2c0.9-3,1.7-5.8,2.2-8.4
				c0.5-2.6,0.8-4.8,0.8-6.7c0-2.9-0.8-5.2-2.4-6.9c-1.6-1.7-4.2-2.5-7.6-2.5C357.8,39.8,356.9,44.2,355.9,48.5z"/>
			<path class="st2" d="M379.5,104.9L395,20.8l37.4-3.2c-0.6,1.7-1,3.5-1.4,5.3c-0.4,1.5-0.8,3.1-1.1,4.7c-0.4,1.6-0.7,3.1-0.9,4.3
				c-0.8,0.1-1.9,0.1-3.4,0.2c-1.5,0-3,0.1-4.7,0.1c-1.7,0-3.3,0.1-5,0.1c-1.7,0-3.2,0-4.4,0l-4.1,21.2c2.4-0.2,4.7-0.3,6.9-0.4
				c1.7-0.1,3.5-0.1,5.3-0.1s3.2,0,4-0.1c-0.3,2.2-0.6,4.4-0.9,6.5c-0.3,2.1-0.6,4.3-1,6.5c-0.8,0.1-2.1,0.1-3.8,0.2
				c-1.8,0-3.6,0.1-5.4,0.2c-2,0.1-4.3,0.2-6.7,0.2l-4,21.8l17.3-2.7L417.7,99L379.5,104.9z"/>
			<path class="st2" d="M466.8,101.2c-2.7,0.2-5.5,0.4-8.2,0.7c-2.8,0.3-5.5,0.7-8.1,1.2c-2.6,0.5-5,1.1-7.2,1.8
				c0.5-3.5,1-7.5,1.7-11.8c0.6-4.3,1.4-8.8,2.2-13.5c0.8-4.7,1.7-9.3,2.5-14.1c0.8-4.7,1.7-9.3,2.5-13.6c2-10.3,4.1-20.9,6.3-31.6
				l20.7-2.7c-2.1,9.2-4.2,18.1-6.2,26.7c-0.9,3.7-1.7,7.6-2.6,11.5c-0.9,4-1.7,7.9-2.5,11.7c-0.8,3.8-1.5,7.5-2.1,11
				c-0.6,3.5-1.1,6.7-1.5,9.5c2-0.2,4.1-0.3,6.3-0.3c2.2,0,4.2-0.1,6-0.1c0.1,1.5,0.2,3,0.4,4.4c0.2,1.5,0.3,2.8,0.5,4
				c0.2,1.2,0.4,2.2,0.5,3.1c0.1,0.9,0.2,1.5,0.3,1.8c-0.6,0-1.2,0-1.8-0.1c-0.6,0-1.2-0.1-1.8-0.1
				C472.1,101,469.6,101.1,466.8,101.2z"/>
			<path class="st2" d="M506,48.1c0,0-0.5,0-1.4,0s-2.1,0.1-3.6,0.2c-1.4,0.1-3,0.2-4.7,0.3c-1.7,0.1-3.3,0.2-4.8,0.3
				s-3.2,0.2-5.3,0.3c0.3-0.9,0.7-2.2,1.2-3.8c0.5-1.6,1.1-3.4,1.7-5.3c0.6-1.9,1.2-4,1.9-6.1c0.7-2.1,1.3-4.2,2-6.3
				c1.4-4.9,3-10.1,4.7-15.6l9.6,0.2L518,12c-1.9,5.4-3.6,10.6-5.1,15.4c-0.7,2-1.4,4-2.1,6.1c-0.7,2.1-1.4,4.1-2,5.9
				c-0.6,1.9-1.1,3.5-1.7,5c-0.5,1.5-0.9,2.7-1.2,3.7C506,48.1,506,48.1,506,48.1z"/>
			<path class="st2" d="M516.1,102.7c-2.1,0.2-4.2,0.4-6.4,0.7c-2.2,0.3-4.2,0.5-6,0.8c-1.8,0.2-2.7,0.4-2.9,0.5
				c0.9-3.4,1.9-7.2,2.8-11.3c0.9-4.1,1.9-8.5,2.9-13c1-4.5,1.9-9.1,2.8-13.8c0.9-4.7,1.8-9.1,2.7-13.5c2-10.1,3.9-20.5,5.8-31.1
				l18.5-3c-2.1,10.6-4.1,20.9-6.2,31.1c-0.9,4.3-1.8,8.8-2.7,13.5c-0.9,4.7-1.8,9.3-2.6,13.8c-0.8,4.6-1.7,9-2.5,13.3
				c-0.8,4.3-1.6,8.2-2.2,11.7C519.5,102.4,518.2,102.5,516.1,102.7z"/>
			<path class="st2" d="M525.9,105.4c2.2-11.1,4.3-22,6.4-32.5c0.8-4.4,1.6-9.1,2.5-13.9c0.9-4.9,1.8-9.6,2.5-14.3
				c0.8-4.7,1.5-9.2,2.2-13.6c0.7-4.4,1.2-8.4,1.6-12c2.4-0.2,4.8-0.3,7.1-0.5c2-0.2,4.1-0.3,6.3-0.4c2.1-0.1,4-0.3,5.7-0.4
				c1,6.1,1.9,11.9,2.7,17.4c0.4,2.4,0.8,4.8,1.2,7.4c0.4,2.6,0.8,5,1.2,7.4c0.4,2.4,0.8,4.6,1.2,6.8c0.4,2.2,0.8,4.1,1.2,5.7
				c0.3-1.7,0.7-3.6,1.1-5.7c0.4-2.2,0.8-4.5,1.3-6.9c0.5-2.4,1-4.9,1.5-7.4c0.5-2.5,1-5,1.5-7.3c1.2-5.5,2.4-11.3,3.7-17.3
				l14.4-1.8c-2.7,11.8-5,23-7.1,33.6c-0.9,4.6-1.9,9.2-2.8,13.8c-0.9,4.7-1.8,9.2-2.5,13.5c-0.8,4.3-1.5,8.3-2,12
				c-0.6,3.7-1,6.8-1.3,9.3c-0.2,0-1.2,0.2-2.8,0.5c-1.6,0.4-3.5,0.8-5.6,1.2c-2.1,0.5-4.2,1-6.3,1.5c-2.1,0.5-3.6,0.9-4.7,1.2
				c-0.6-6.4-1.1-12.5-1.8-18.2c-0.2-2.4-0.5-5-0.8-7.6c-0.3-2.6-0.6-5.1-0.9-7.5c-0.3-2.4-0.6-4.6-0.8-6.7
				c-0.3-2.1-0.5-3.8-0.8-5.3c-0.2,1.4-0.6,3.2-0.9,5.2c-0.4,2.1-0.8,4.2-1.2,6.6c-0.4,2.3-0.8,4.7-1.2,7.2
				c-0.4,2.5-0.8,4.9-1.3,7.3c-1,5.6-2.1,11.4-3.3,17.5L525.9,105.4z"/>
			<path class="st2" d="M628.7,87.6c-1.7,3.6-4,6.7-6.9,9.3c-2.9,2.6-6.3,4.6-10.2,6c-3.9,1.4-8.1,2.1-12.6,2.1
				c-3.2,0-6.3-0.8-9.5-2.5c-3.2-1.7-6.2-4.4-9.1-8.1l8.8-17.2c0.6,1,1.4,2.1,2.5,3.1c1.1,1.1,2.3,2,3.7,2.8c1.4,0.8,2.8,1.4,4.1,2
				c1.4,0.5,2.6,0.8,3.7,0.8c0.9,0,1.9-0.2,3-0.5c1-0.3,2-0.8,2.8-1.4c0.9-0.6,1.6-1.4,2.1-2.2c0.5-0.8,0.8-1.8,0.8-2.9
				c0-1.9-0.6-3.6-1.8-5.3s-2.7-3.2-4.6-4.6c-1.8-1.5-3.8-2.9-5.9-4.4c-2.1-1.5-4.1-3.1-5.9-4.7s-3.3-3.5-4.6-5.6
				c-1.3-2-1.9-4.3-1.9-6.9c0-4.1,1.2-7.9,3.7-11.5c2.4-3.5,5.5-6.6,9.2-9.2c3.7-2.6,7.7-4.6,12-6.1c4.3-1.5,8.4-2.2,12.3-2.2
				c2.1,0,4.1,0.3,6,0.8c1.9,0.5,3.5,1.3,4.9,2.5c1.4,1.1,2.5,2.6,3.3,4.3c0.8,1.7,1.2,3.9,1.2,6.5c0,1.1-0.1,2.2-0.3,3.3
				c-0.2,1.1-0.4,2.3-0.5,3.6l-17.2,5c0.2-0.6,0.3-1.3,0.4-1.9c0.1-0.6,0.2-1.3,0.2-1.9c0-2.4-0.4-4.1-1.2-5.1
				c-0.8-1.1-1.9-1.6-3.3-1.6c-0.6,0-1.4,0.2-2.3,0.7c-0.9,0.5-1.8,1.1-2.7,1.8c-0.9,0.8-1.7,1.6-2.3,2.7c-0.6,1-0.9,2.1-0.9,3.3
				c0,1.9,0.5,3.5,1.6,4.7c1.1,1.3,2.4,2.4,4,3.6c1.6,1.1,3.3,2.2,5.1,3.4c1.9,1.1,3.6,2.6,5.1,4.4c1.6,1.8,2.9,4.1,4,6.8
				c1.1,2.7,1.6,6.2,1.6,10.4C631.2,80,630.4,84,628.7,87.6z"/>
			<path class="st2" d="M666.7,103.5c-2.4,0.4-4.5,0.7-6.4,1.1c0.3-2.6,0.6-5.2,0.9-7.7c0.2-2.2,0.5-4.4,0.7-6.6
				c0.2-2.2,0.4-4.1,0.5-5.7h-10.3l-4.7,17c-1.7,0.2-3.8,0.5-6.2,0.8c-2.4,0.3-4.6,0.5-6.6,0.8c-2.5,0.3-5,0.6-7.5,0.9
				c3.2-10.5,6.3-20.8,9.3-31c1.3-4.3,2.6-8.7,4-13.4c1.4-4.7,2.8-9.3,4.1-13.9c1.4-4.6,2.7-9,4-13.3c1.3-4.3,2.4-8.2,3.3-11.7
				c5.4-0.4,10.8-0.9,16.4-1.4c5.6-0.6,11-1.3,16.3-2.2c-0.2,2.5-0.5,5.7-0.8,9.4c-0.3,3.7-0.5,7.8-0.8,12.2
				c-0.2,4.4-0.5,9-0.7,13.8c-0.2,4.8-0.5,9.5-0.7,14.2c-0.4,10.9-0.8,22.4-1.3,34.7c-2.4,0.4-4.7,0.7-7.1,0.9
				C671.2,102.7,669.1,103.1,666.7,103.5z M655,72.7c0.3,0,0.9,0,1.7-0.1c0.8,0,1.7-0.1,2.6-0.1c0.9,0,1.8-0.1,2.5-0.1
				c0.8,0,1.3-0.1,1.7-0.2c0-0.5,0.1-1.3,0.2-2.4c0.1-1.1,0.2-2.4,0.4-3.9c0.1-1.5,0.3-3.1,0.4-4.8c0.2-1.7,0.3-3.4,0.5-5.1
				c0.3-4,0.7-8.4,1.2-13l0.7-10.3l-1.8,0.1L662.3,43L655,72.7z"/>
		</g>
		<g>
			<path class="st2" d="M108.1,67.4c-6.3,5-10.7,8.8-13.2,11.4c-2.5,2.6-4.5,5-5.9,7.3h0.7c1.4,0,2.8,0.1,4.4,0.2
				c1.5,0.1,3.9,0.4,7.1,0.9c3.7,0.5,6.6,0.9,8.7,1.1c2,0.2,4,0.3,5.9,0.3c2.2,0,4.1-0.2,5.7-0.5c1.6-0.4,3.2-1,4.6-1.9
				c0.5-0.4,1.4-1.1,2.7-2.2c1.4-1.1,3.1-2.7,5.2-4.7c0.1,0.7,0.1,1.5,0.1,2.4c0,0.9,0,2.1,0,3.6c0,7.8-1.2,13.2-3.7,16.1
				c-2.5,2.9-6.6,4.4-12.5,4.4c-2.6,0-5.2-0.2-7.6-0.5c-2.5-0.3-5.7-1-9.8-2c-3.9-1-7-1.7-9.3-2c-2.3-0.3-4.6-0.5-7.1-0.5
				c-0.7,0-1.6,0.2-2.7,0.5c-1.1,0.3-2.8,1-5,2.1c-0.9,0.4-1.6,0.6-2,0.8c-0.4,0.2-0.7,0.3-1,0.4c-0.1-0.5-0.2-1.1-0.2-1.7
				c0-0.6-0.1-1.5-0.1-2.8c0-5,1.3-10,4-14.9c2.6-5,8.3-11.9,16.9-20.8c4.9-5.1,8.5-9,10.8-11.7c2.3-2.7,4.2-5.3,5.7-7.8
				c2.5-4,4.4-8,5.7-12c1.2-4,1.8-8.1,1.8-12.3c0-3.1-0.8-5.7-2.5-7.9c-1.7-2.2-3.6-3.3-5.8-3.3c-3.9,0-6.7,0.8-8.5,2.5
				c-1.7,1.6-2.6,4.5-2.6,8.6c0,2.2,0.5,4.2,1.4,5.9c1,1.8,2.2,2.9,3.7,3.3c-1.7,1.5-3.5,2.7-5.2,3.5c-1.7,0.8-3.5,1.2-5.2,1.2
				c-3,0-5.4-1.1-7.2-3.3c-1.8-2.2-2.7-5.2-2.7-8.9c0-5.9,2.5-10.7,7.5-14.4C96.1,3.8,103,2,111.7,2c8.6,0,15.1,1.8,19.4,5.5
				c4.3,3.7,6.5,9.2,6.5,16.4c0,4.4-0.8,8.6-2.4,12.7c-1.6,4.1-4,8.2-7.2,12.2c-2,2.5-4.4,5-7.1,7.6C118.2,59,114,62.7,108.1,67.4z"
				/>
			<path class="st2" d="M182.6,104.1h-19.6l8-37.5h-33.3c0.5-1.7,1.3-3.7,2.2-5.9c1-2.2,2.6-5.8,5-10.7c5.1-10.7,8.5-18.9,10.2-24.5
				c1.7-5.6,2.5-10.8,2.5-15.4c0-1.5-0.1-2.9-0.2-4.2s-0.4-2.7-0.7-4c4.5,0,8.1,1.2,10.9,3.5c2.8,2.4,4.2,5.5,4.2,9.4
				c0,3.5-0.6,7.1-1.7,10.6c-1.1,3.5-2.9,7.4-5.4,11.5c-1.2,1.9-3.3,5-6.3,9.4c-3,4.4-5.2,7.8-6.5,10.2h21.3l11-51.9l20.2-2.7
				l-11.7,54.7h8.7l-2.7,10.1h-8.2L182.6,104.1z"/>
			<path class="st3" d="M228.3,0.9c1.9-1.4,13.9-2.5,8.9,11.9L228.9,43c2.3-2.5,4.7-4.5,7.4-5.7c2.6-1.3,5.5-1.9,8.6-1.9
				c4.8,0,8.5,1.3,11.2,4c2.6,2.6,4,6.5,4,11.5c0,2.1-0.3,4.6-0.7,7.4c-0.5,2.9-1.5,7.2-2.9,13.2c-1.2,4.6-2,7.9-2.3,9.8
				c-0.4,1.9-0.5,3.5-0.5,4.8c0,1.9,0.5,3.3,1.4,4.3c0.9,1,2.3,1.4,4.1,1.4c2.3,0,4.1-0.5,6.2-1.6c1.9-1.1,8.9-5.4,11-10.4l0,0
				c-2.9,8.5-6.4,14.8-10.6,18.9c-4.1,4.2-9.1,6.3-14.8,6.3c-5.1,0-9-1.4-11.9-4.2c-2.8-2.8-4.2-6.5-4.2-11.2c0-1.6,0.2-3.7,0.6-6.1
				c0.4-2.5,1.2-6.4,2.5-11.7c1.3-5.2,2.1-8.9,2.5-11.2c0.4-2.3,0.5-4.2,0.5-5.7c0-2.3-0.4-4-1.3-5.2c-0.9-1.2-2.1-1.8-3.7-1.8
				c-2.2,0-4.3,1.3-6.3,3.9c-2,2.6-3,4-5.5,8.1l-25.5,44.4l17.6-84.4C219.7,3.3,228.3,0.9,228.3,0.9z"/>
			<circle class="st3" cx="300.5" cy="61.3" r="13"/>
			<path class="st3" d="M278.9,64.3c0,0,1-62.9,20.2-64.2c19.1-1.3,15,16,9.3,20.3S284.3,33.3,278.9,64.3z"/>
		</g>
		<g>
			<circle class="st4" cx="10.5" cy="88.8" r="8.2"/>
			<path class="st4" d="M49.3,118.8c0,0-1-0.9-2.5-2.9c6.4,8.4-49-47.5,3-93.8c22.4-13.4,25.4,13.5,9.9,24
				c-7.7,5.2-30.6,24.3-12.4,67.6"/>
			<path class="st4" d="M24.2,89.6c0,0-3.7-39.5-15.8-39.4C-3.7,50.3-0.3,61,3.5,63.5S19.3,70.4,24.2,89.6z"/>
			<g>
				<path class="st5" d="M38.9,71l-0.4,1.8l-3.3-1.6l-0.8,3.1c-0.1-0.1-0.3-0.2-0.5-0.3c-0.2-0.1-0.5-0.4-0.9-0.7
					c-0.9-0.7-1.6-1.2-2-1.5c-0.5-0.3-0.9-0.5-1.4-0.6c-0.1,0-0.3-0.1-0.4-0.1c-0.1,0-0.3,0-0.4,0c0.1-0.4,0.3-0.7,0.6-0.9
					c0.3-0.2,0.6-0.3,1-0.2c0.3,0.1,0.6,0.2,0.9,0.4c0.3,0.2,0.6,0.4,0.9,0.8c0.1,0.2,0.4,0.4,0.7,0.8c0.3,0.4,0.6,0.7,0.8,0.8
					l0.5-2l-4.6-2.2l0.2-1.9l4.8,2.3l0.2-0.8l0.9,0.5l-0.2,0.8L38.9,71z"/>
				<path class="st5" d="M37.5,63.2c-0.4-0.1-0.7-0.2-0.9-0.1c-0.3,0-0.4,0.2-0.5,0.4c-0.1,0.2-0.1,0.4,0,0.7
					c0.1,0.2,0.3,0.5,0.5,0.7c-0.1,0-0.3,0.1-0.4,0.1c-0.1,0-0.3,0-0.4-0.1c-0.3-0.1-0.6-0.4-0.7-0.8c-0.1-0.4-0.1-0.9,0.1-1.4
					c0.2-0.5,0.5-0.8,1-1c0.5-0.2,1-0.1,1.6,0.1c1,0.4,1.8,1,2.3,1.9s0.6,1.8,0.3,2.7c-0.3,0.8-0.7,1.3-1.2,1.6
					c-0.5,0.3-1.2,0.2-2.1-0.1c-0.1,0-0.2-0.1-0.3-0.1c-0.1,0-0.1,0-0.2-0.1c-2-0.8-3.4-1.8-4.2-3c-0.9-1.2-1.1-2.4-0.6-3.6
					c0.1-0.4,0.4-0.7,0.7-0.9c0.3-0.2,0.6-0.2,0.9-0.1c0.2,0.1,0.4,0.2,0.5,0.5c0.1,0.2,0.1,0.5,0,0.9c0-0.1-0.1-0.2-0.2-0.2
					c-0.1-0.1-0.1-0.1-0.2-0.1c-0.2-0.1-0.4-0.1-0.5,0c-0.2,0.1-0.3,0.2-0.3,0.4c-0.1,0.4-0.1,0.8,0.2,1.3c0.3,0.5,0.7,1,1.3,1.5
					c0.4,0.3,0.8,0.6,1.3,0.9c0.5,0.3,1,0.6,1.6,0.8c0.2,0.1,0.4,0.2,0.5,0.2c0.1,0.1,0.3,0.1,0.4,0.1c0.5,0.2,0.8,0.2,1.1,0.2
					c0.3-0.1,0.4-0.3,0.6-0.7c0.1-0.4,0-0.9-0.4-1.4C38.7,63.8,38.2,63.4,37.5,63.2z"/>
				<path class="st5" d="M38.5,56.5c0.7,0.3,1.1,0.8,1.4,1.6c0.3,0.8,0.2,1.5,0,2.3c0.1,0.1,0.2,0.1,0.3,0.1c0.1,0,0.1,0.1,0.2,0.1
					c0.4,0.2,0.7,0.2,0.9,0.2c0.2-0.1,0.4-0.2,0.5-0.6c0.2-0.4,0.2-0.8,0.2-1.1c0-0.4-0.2-0.9-0.5-1.5l0.2-0.4
					c0.5,0.8,0.9,1.5,1,2.2c0.1,0.7,0.1,1.4-0.2,2c-0.3,0.6-0.6,1-1.1,1.2c-0.5,0.2-1,0.1-1.6-0.1c-0.5-0.2-0.9-0.5-1.3-0.8
					c-0.4-0.4-0.8-0.8-1.1-1.2c-0.3-0.5-0.6-1-0.6-1.5c-0.1-0.5,0-1,0.2-1.5c0.2-0.4,0.4-0.7,0.7-0.9C37.8,56.3,38.1,56.3,38.5,56.5
					z M37.5,57.5c-0.1,0.3,0,0.6,0.4,1.1c0.4,0.5,0.9,0.9,1.5,1.4c0.2-0.5,0.1-1-0.1-1.5c-0.2-0.5-0.6-0.9-1.1-1.1
					c-0.2-0.1-0.3-0.1-0.4-0.1C37.6,57.3,37.5,57.4,37.5,57.5z"/>
				<path class="st5" d="M38.7,46.9l1.4,2.6l-0.5,0.8L38,48.1L38.7,46.9z M42.3,49.3c0.6,0.4,1,0.9,1.2,1.7c0.2,0.8,0.1,1.5-0.3,2.3
					c0.1,0.1,0.2,0.1,0.3,0.2c0.1,0,0.1,0.1,0.2,0.1c0.3,0.2,0.6,0.3,0.8,0.2c0.2,0,0.4-0.2,0.6-0.5c0.2-0.4,0.3-0.7,0.3-1.1
					c0-0.4-0.1-0.9-0.3-1.5l0.2-0.4c0.5,0.8,0.7,1.6,0.8,2.3c0.1,0.7-0.1,1.4-0.4,2c-0.3,0.6-0.7,0.9-1.2,1.1c-0.5,0.1-1,0-1.6-0.3
					c-0.4-0.2-0.8-0.6-1.3-1c-0.4-0.4-0.7-0.8-1-1.3c-0.3-0.5-0.4-1.1-0.5-1.6c0-0.5,0.1-1,0.4-1.5c0.2-0.4,0.5-0.7,0.8-0.8
					C41.6,49,42,49.1,42.3,49.3z M41.2,50.2c-0.1,0.3-0.1,0.6,0.2,1.2c0.3,0.5,0.7,1,1.3,1.5c0.2-0.5,0.2-1,0-1.5
					c-0.2-0.5-0.5-0.9-1-1.2c-0.2-0.1-0.3-0.1-0.4-0.1S41.3,50.1,41.2,50.2z"/>
				<path class="st5" d="M44.4,45.1L44.4,45.1l-2.1-2.1l0.8-1.7l5,5.1c0.1,0.1,0.1,0.1,0.2,0.2c0,0,0.1,0.1,0.2,0.1
					c0.1,0.1,0.3,0.1,0.4,0.1c0.1,0,0.2-0.1,0.3-0.3c0.1-0.2,0.2-0.4,0.1-0.7c-0.1-0.3-0.2-0.5-0.5-0.8l0.3-0.5
					c0.5,0.6,0.8,1.3,0.9,1.8c0.1,0.6,0,1.1-0.4,1.6c-0.2,0.3-0.4,0.5-0.7,0.6c-0.3,0.1-0.6,0-0.9-0.1c0.2,0.4,0.3,0.8,0.3,1.2
					c0,0.4-0.1,0.7-0.3,1c-0.3,0.4-0.7,0.7-1.2,0.8c-0.5,0.1-1-0.1-1.5-0.5c-0.4-0.3-0.8-0.6-1.1-1c-0.4-0.4-0.6-0.8-0.9-1.3
					C43,48,42.9,47.5,42.9,47c0-0.5,0.1-1,0.4-1.4c0.2-0.3,0.4-0.5,0.6-0.6C44.1,45,44.3,45,44.4,45.1z M46.2,49.2
					c0.3,0.2,0.5,0.3,0.7,0.3c0.2,0,0.4-0.1,0.5-0.3c0.1-0.2,0.2-0.4,0.1-0.7c-0.1-0.3-0.2-0.5-0.4-0.8l-0.1,0l-2.1-2.2
					c-0.1-0.1-0.3-0.1-0.4,0c-0.1,0-0.2,0.1-0.3,0.2c-0.3,0.4-0.2,1,0.3,1.7C45,48.2,45.5,48.8,46.2,49.2z"/>
				<path class="st5" d="M46.2,38.8c0.2,0.2,0.4,0.4,0.4,0.7c0,0.3,0,0.5-0.2,0.8c-0.2,0.2-0.4,0.4-0.7,0.4c-0.3,0-0.5,0-0.8-0.2
					c-0.2-0.2-0.4-0.4-0.4-0.7c0-0.3,0-0.5,0.2-0.8c0.2-0.2,0.4-0.4,0.7-0.4C45.7,38.5,46,38.6,46.2,38.8z M49.5,45.5
					c-0.1-0.1-0.2-0.2-0.3-0.3c-0.1-0.1-0.2-0.2-0.3-0.3l-2.8-3.2l1.1-1.5l2.9,3.4c0.1,0.1,0.1,0.1,0.1,0.2c0,0,0.1,0.1,0.2,0.1
					c0.1,0.1,0.3,0.1,0.4,0.1c0.1,0,0.2-0.1,0.3-0.3c0.1-0.2,0.2-0.4,0.2-0.7c0-0.3-0.2-0.6-0.4-0.9l0.3-0.4c0.5,0.7,0.7,1.4,0.7,2
					c0,0.6-0.1,1.2-0.5,1.6c-0.3,0.3-0.6,0.5-0.9,0.6C50.3,46,49.9,45.8,49.5,45.5z"/>
				<path class="st5" d="M48.2,39.1l0.3-0.3l-1.1-1.5l1-1.6l1.3,1.7l0.5-0.6l0.3,0.4L50,37.8l2.4,3.2c0,0.1,0.1,0.1,0.1,0.2
					c0,0,0.1,0.1,0.1,0.1c0.1,0.1,0.3,0.2,0.4,0.1c0.1,0,0.2-0.1,0.3-0.2c0.2-0.2,0.2-0.4,0.2-0.7c0-0.3-0.1-0.6-0.3-0.9l0.4-0.4
					c0.4,0.7,0.6,1.4,0.6,2c0,0.6-0.2,1.2-0.6,1.6c-0.3,0.3-0.6,0.5-1,0.5c-0.4,0-0.7-0.1-1.1-0.5c-0.1-0.1-0.2-0.2-0.3-0.3
					c-0.1-0.1-0.2-0.2-0.3-0.4l-2.3-3l-0.3,0.3L48.2,39.1z"/>
				<path class="st5" d="M51.2,33.2c0.2,0.2,0.3,0.4,0.3,0.7c0,0.3-0.1,0.5-0.3,0.7c-0.2,0.2-0.4,0.3-0.7,0.3
					c-0.3,0-0.5-0.1-0.7-0.3c-0.2-0.2-0.3-0.4-0.3-0.7c0-0.3,0.1-0.5,0.3-0.7c0.2-0.2,0.4-0.3,0.7-0.3C50.7,32.9,50.9,33,51.2,33.2z
					 M53.8,40.2c-0.1-0.1-0.2-0.2-0.3-0.3c-0.1-0.1-0.2-0.2-0.3-0.4L50.8,36l1.3-1.4l2.6,3.7c0,0.1,0.1,0.1,0.1,0.2
					c0,0.1,0.1,0.1,0.1,0.1c0.1,0.1,0.2,0.2,0.4,0.2c0.1,0,0.2-0.1,0.4-0.2c0.2-0.2,0.2-0.4,0.2-0.7s-0.1-0.6-0.3-0.9l0.4-0.4
					c0.4,0.7,0.6,1.4,0.6,2c0,0.6-0.2,1.2-0.7,1.6c-0.3,0.3-0.6,0.5-1,0.5C54.6,40.7,54.2,40.5,53.8,40.2z"/>
				<path class="st5" d="M55.7,37.3c-0.3-0.4-0.6-0.8-0.9-1.3c-0.3-0.5-0.4-1-0.5-1.5c-0.1-0.6-0.1-1.1,0-1.6
					c0.1-0.5,0.4-0.9,0.8-1.3c0.4-0.4,0.8-0.5,1.3-0.5s0.9,0.3,1.4,0.8c0,0,0,0,0.1,0c0,0,0,0,0.1-0.1c0.2-0.2,0.4-0.5,0.5-0.8
					c0.2-0.4,0.3-0.7,0.4-1.1l0.3,0.2c0,0.4-0.1,0.7-0.2,1.2c-0.2,0.4-0.4,0.8-0.7,1.2c0.7,0.9,1.1,1.8,1.2,2.8
					c0.1,0.9-0.2,1.7-0.8,2.2c-0.5,0.5-1,0.7-1.5,0.7S56.2,37.8,55.7,37.3z M55.8,32c-0.3,0.3-0.3,0.9,0,1.7
					c0.3,0.9,0.7,1.6,1.2,2.1c0.3,0.3,0.5,0.5,0.7,0.5c0.2,0,0.3,0,0.5-0.2c0.2-0.2,0.3-0.6,0.1-1.2c-0.1-0.6-0.4-1.2-0.9-1.8
					c-0.1,0.1-0.2,0.1-0.3,0.1c-0.1,0-0.2-0.1-0.3-0.2c-0.1-0.1-0.2-0.2-0.2-0.4c0-0.1,0-0.3,0-0.4c-0.2-0.2-0.4-0.3-0.5-0.3
					C56,31.9,55.9,31.9,55.8,32z"/>
				<path class="st5" d="M62.9,31.7c-0.1-0.1-0.2-0.3-0.3-0.5c-0.1-0.2-0.3-0.5-0.5-1c-0.2-0.5-0.4-0.8-0.5-1
					c-0.1-0.2-0.2-0.3-0.3-0.5c-0.1-0.2-0.3-0.3-0.4-0.3c-0.1,0-0.3,0-0.4,0.1c-0.2,0.1-0.2,0.3-0.3,0.6c0,0.3,0.1,0.6,0.2,1
					l1.9,3.8l-1.5,1.2l-3-5.9l1.5-1.2l0.3,0.6c0-0.3,0.1-0.6,0.2-0.9c0.1-0.3,0.3-0.5,0.5-0.7c0.4-0.3,0.7-0.4,1.1-0.4
					c0.4,0,0.7,0.2,1,0.6c0.1,0.2,0.3,0.4,0.4,0.6c0.1,0.2,0.3,0.6,0.6,1.2c0.2,0.4,0.3,0.7,0.4,0.9c0.1,0.2,0.2,0.3,0.2,0.4
					c0.1,0.1,0.2,0.2,0.4,0.2c0.1,0,0.3,0,0.4-0.1c0.2-0.1,0.3-0.3,0.3-0.5c0-0.2,0-0.6-0.2-1.1l0.4-0.3c0.3,0.8,0.4,1.5,0.3,2
					c-0.1,0.6-0.3,1-0.7,1.3c-0.4,0.3-0.8,0.4-1.1,0.4C63.5,32.3,63.1,32.1,62.9,31.7z"/>
			</g>
		</g>
		<g>
			<path class="st3" d="M35.1,5.8c0.2,0.2,0.3,0.5,0.4,0.8c0.3,0.6,0.6,1.3,0.8,2c0.2,0.5,0.3,1,0.4,1.5c0,0.1,0,0.3,0,0.4
				c-0.2,1.6-0.7,3.2-1.3,4.7c-0.2,0.5-0.4,1-0.6,1.5c0,0.1,0,0.1,0,0.1c0.9,1,2,2,3.1,2.8c0.8,0.6,1.6,1.1,2.5,1.5
				c0.1,0,0.1,0.1,0.1,0.2c-0.1,0.7-0.3,1.4-0.4,2.1c-0.1,0.7-0.3,1.4-0.4,2.1c-0.1,0.5-0.2,0.9-0.3,1.4c0,0.1,0,0.1-0.1,0
				c-0.5-0.3-1-0.7-1.5-1c-1.4-1-2.6-2.1-3.7-3.4c-0.5-0.6-1-1.3-1.5-1.9c0,0,0-0.1-0.1-0.1c0-0.1-0.1-0.1-0.1-0.1
				c-0.3-0.5-0.6-1-0.9-1.4c-0.3-0.4-0.5-0.9-0.8-1.4c-0.1-0.3-0.3-0.6-0.4-0.9c-0.1-0.3-0.3-0.6-0.4-0.9c-0.4-0.9-0.7-1.8-1-2.8
				c-0.2-0.6-0.3-1.1-0.4-1.7c-0.1-0.4-0.2-0.8-0.2-1.2c0-0.1,0-0.2,0-0.3c0.2-0.9,0.5-1.8,0.9-2.6c0.2-0.4,0.4-0.9,0.6-1.3
				c0,0,0,0,0-0.1c0,0,0,0,0,0c0,0.3,0.1,0.5,0.1,0.8C30,7.1,30.1,7.5,30.2,8c0,0.2,0.1,0.3,0.1,0.5c0,0,0,0,0,0
				c0.1,0.2,0.1,0.4,0.2,0.7c0.1,0.3,0.2,0.6,0.3,0.9c0.4,1.1,0.9,2.2,1.4,3.2c0.1,0.1,0.1,0.3,0.2,0.4c0,0,0,0,0,0
				c0.4-0.7,0.7-1.3,1-2c0.4-0.9,0.7-1.8,1-2.7c0-0.1,0.1-0.2,0.1-0.4c0,0,0-0.1,0-0.1c0.1-0.2,0.1-0.5,0.2-0.8
				C34.9,7.1,35,6.5,35,6C35,5.9,35,5.8,35.1,5.8z"/>
			<path class="st3" d="M31.8,21.3c-0.7,0.9-1.4,1.7-2.2,2.5c-0.9,0.9-1.8,1.6-2.8,2.3c-0.1,0.1-0.2,0.2-0.3,0.2
				c-0.3,0.2-0.6,0.4-0.9,0.5c-0.1,0-0.1,0-0.1,0c-0.1-0.5-0.2-0.9-0.3-1.4c-0.1-0.7-0.2-1.3-0.4-2c-0.1-0.6-0.2-1.2-0.3-1.9
				c0-0.2-0.1-0.3-0.1-0.5c0-0.1,0-0.1,0-0.1c0.8-0.4,1.5-0.8,2.3-1.3c0.9-0.6,1.6-1.2,2.4-2c0.1-0.1,0.2-0.2,0.3-0.3
				c0.1,0.2,0.2,0.5,0.4,0.7c0.2,0.3,0.3,0.6,0.5,0.9c0.3,0.5,0.6,1,0.9,1.4C31.4,20.8,31.6,21,31.8,21.3
				C31.7,21.2,31.8,21.3,31.8,21.3z"/>
			<path class="st3" d="M35.1,5.8c0,0.1,0,0.1,0,0.2c-0.1,0.6-0.2,1.1-0.3,1.6c-0.1,0.3-0.1,0.5-0.2,0.8c0,0,0,0.1,0,0.1
				c-0.2-0.1-0.5-0.2-0.7-0.3c-0.9-0.3-1.7-0.4-2.6-0.1c-0.3,0.1-0.6,0.2-0.9,0.4c-0.1-0.1-0.1-0.3-0.1-0.5
				c-0.1-0.5-0.2-0.9-0.3-1.4c0-0.3-0.1-0.5-0.1-0.8c0,0,0,0,0,0c0,0,0,0,0.1,0c0.5-0.2,1-0.3,1.5-0.4c0.5-0.1,1-0.1,1.6-0.1
				C33.6,5.3,34.3,5.4,35.1,5.8C35,5.7,35.1,5.7,35.1,5.8z"/>
			<path class="st3" d="M31.8,21.3C31.8,21.3,31.7,21.2,31.8,21.3c-0.2-0.3-0.4-0.5-0.5-0.7c-0.3-0.5-0.6-0.9-0.9-1.4
				c-0.2-0.3-0.4-0.6-0.5-0.9c-0.1-0.2-0.2-0.5-0.4-0.7c0.1-0.1,0.2-0.2,0.3-0.3c0.2-0.2,0.3-0.3,0.5-0.5c0.1,0.3,0.3,0.6,0.4,0.9
				c0.2,0.5,0.5,0.9,0.8,1.4c0.3,0.5,0.6,1,0.9,1.4c0,0,0.1,0.1,0.1,0.1C32.2,20.7,32,20.9,31.8,21.3C31.8,21.2,31.8,21.2,31.8,21.3
				z"/>
		</g>
	</g>
	<g>
	</g>
	<g>
	</g>
	<g>
	</g>
	<g>
	</g>
	<g>
	</g>
	<g>
	</g>
</g>
</svg>
