<svg id="Calque_1" xmlns="http://www.w3.org/2000/svg" width="681" height="176" viewBox="33 17.5 681 176"><path fill="#008C3C" d="M43.948 138.732a68.61 68.61 0 0 0 21.992 21.883l28.489-39.239-50.481 17.356z"/><path fill="#FD0" d="M101.889 49.723c-29.148 0-52.782 23.633-52.782 52.788 0 5.816.978 11.398 2.715 16.628l85.242-29.309-46.603 64.182c3.684.82 7.5 1.279 11.427 1.279 29.153 0 52.786-23.633 52.786-52.78.001-29.155-23.632-52.788-52.785-52.788z"/><path d="M248.66 104.957c0 11.901-10.447 15.554-18.176 15.554h-1.778c-6.682 0-13.574-3.867-16.706-10.645-.321-.73-.526-1.461-.526-2.299 0-2.815 2.504-4.802 5.118-4.802 5.012 0 5.11 7.937 12.113 7.937h1.778c5.849 0 8.146-2.404 8.146-5.745 0-5.64-5.531-6.166-9.818-7.003-7.206-1.354-16.285-4.383-16.285-13.257v-1.782c0-10.344 11.275-13.89 17.958-13.89h.421c9.286 0 16.192 5.328 16.192 8.981 0 2.405-1.998 4.597-4.807 4.597-3.973 0-4.802-3.653-11.385-3.653h-.421c-4.584 0-7.937 1.88-7.937 4.277v1.042c.001 7.519 26.113 1.264 26.113 20.688zM260.72 69.344v-9.542c0-3.341 2.501-5.016 4.907-5.016 2.506 0 5.125 1.675 5.125 5.016v9.542h3.644c3.346 0 5.016 2.504 5.016 4.901 0 2.504-1.671 5.016-5.016 5.016h-3.644v26.738c0 1.666 1.666 4.381 4.179 4.381 3.341 0 5.008 2.504 5.008 4.909 0 2.513-1.666 4.909-5.008 4.909-7.939 0-14.211-6.264-14.211-14.2V69.344zM329.031 115.709c0 2.406-1.675 4.802-4.695 4.802-3.448 0-6.263-1.987-7.832-3.76-2.927 2.406-6.477 3.76-10.549 3.76h-.94c-8.669 0-17.133-4.695-17.133-15.554v-.526c0-14.621 16.612-15.031 24.025-16.706 1.256-.321 1.354-1.256 1.354-1.987 0-4.179-3.029-6.789-6.781-6.789h-.742c-3.027 0-5.424 1.042-6.789 4.072a4.71 4.71 0 0 1-4.386 3.029c-2.606 0-5.221-2.093-5.221-4.909 0-.731.103-1.461.423-2.192 3.341-7.627 10.333-9.926 15.973-9.926h.742c8.353 0 16.813 6.058 16.813 15.771v23.076c0 1.577.102 2.51 1.666 2.832 2.818.721 4.072 2.815 4.072 5.007zm-15.77-12.321v-6.584c-7.306 1.987-15.663 1.568-15.663 7.948 0 3.439 2.717 5.95 7.417 5.95h.94a7.267 7.267 0 0 0 7.306-7.314zM366.434 78.423c0 2.815-2.931 4.285-5.324 4.285-4.602 0-1.885-3.76-7.422-3.76-2.927 0-5.324 1.042-5.324 4.696v31.752c0 3.439-2.619 5.114-5.126 5.114-2.501 0-4.907-1.675-4.907-5.114V74.04c0-3.341 2.405-5.016 5.016-5.016 2.397 0 4.179.526 5.016 2.094 1.145-1.568 3.541-2.094 5.11-2.094 8.46 0 11.596 4.491 12.745 8.152.11.517.216.935.216 1.247zM376.306 69.344v-9.542c0-3.341 2.504-5.016 4.9-5.016 2.513 0 5.123 1.675 5.123 5.016v9.542h3.653c3.341 0 5.016 2.504 5.016 4.901 0 2.504-1.675 5.016-5.016 5.016h-3.653v26.738c0 1.666 1.671 4.381 4.179 4.381 3.341 0 5.007 2.504 5.007 4.909 0 2.513-1.666 4.909-5.007 4.909-7.944 0-14.202-6.264-14.202-14.2V69.344zM440.332 94.924c0 2.61-2.201 5.016-5.016 5.016H414.85v3.76c0 4.072 3.225 7.001 7.306 7.001h.833c7.212 0 5.44-7.215 10.963-7.215 2.619 0 5.221 1.675 5.221 4.491 0 .633-.205 1.363-.517 2.296-3.341 6.691-8.045 10.237-15.668 10.237h-.833c-9.614 0-17.33-7.199-17.33-16.81V85.943c0-9.507 7.93-16.92 17.33-16.92h.833c9.609 0 17.343 7.208 17.343 17.232l.001 8.669zM430.3 90.648v-4.393c0-4.286-3.439-7.306-7.092-7.306h-.953c-4.063 0-7.404 2.922-7.404 6.994v4.705H430.3zM479.509 78.423c0 2.815-2.931 4.285-5.337 4.285-4.589 0-1.88-3.76-7.413-3.76-2.922 0-5.324 1.042-5.324 4.696v31.752c0 3.439-2.606 5.114-5.119 5.114-2.508 0-4.909-1.675-4.909-5.114V74.04c0-3.341 2.401-5.016 5.012-5.016 2.41 0 4.183.526 5.016 2.094 1.145-1.568 3.551-2.094 5.11-2.094 8.465 0 11.601 4.491 12.75 8.152.107.517.214.935.214 1.247zM515.549 78.423c0 2.815-2.931 4.285-5.337 4.285-4.589 0-1.88-3.76-7.413-3.76-2.932 0-5.328 1.042-5.328 4.696v31.752c0 3.439-2.619 5.114-5.123 5.114s-4.9-1.675-4.9-5.114V74.04c0-3.341 2.396-5.016 5.007-5.016 2.397 0 4.179.526 5.016 2.094 1.145-1.568 3.555-2.094 5.119-2.094 8.46 0 11.596 4.491 12.754 8.152.098.517.205.935.205 1.247zM558.583 94.924c0 2.61-2.205 5.016-5.016 5.016h-20.479v3.76c0 4.072 3.239 7.001 7.32 7.001h.82c7.221 0 5.435-7.215 10.986-7.215 2.602 0 5.212 1.675 5.212 4.491 0 .633-.205 1.363-.512 2.296-3.346 6.691-8.05 10.237-15.686 10.237h-.82c-9.614 0-17.347-7.199-17.347-16.81V85.943c0-9.507 7.938-16.92 17.347-16.92h.82c9.618 0 17.356 7.208 17.356 17.232v8.669h-.001zm-10.028-4.276v-4.393c0-4.286-3.453-7.306-7.11-7.306h-.936c-4.081 0-7.422 2.922-7.422 6.994v4.705h15.468z"/><g><path d="M224.631 158.921c0 2.797-2.767 4.736-5.538 4.736h-.254c-3.083 0-5.564-2.339-5.564-5.449v-9.132c0-3.083 2.481-5.453 5.564-5.453h.254c2.771 0 5.538 1.996 5.538 4.767v.084c0 .887-.486 1.484-1.399 1.484-.77 0-1.141-.454-1.341-1.167-.254-1.399-1.312-2.459-2.798-2.459h-.254c-1.599 0-2.827 1.141-2.827 2.713v9.191c0 1.595 1.254 2.74 2.827 2.74h.254c1.486 0 2.544-1.056 2.798-2.455.2-.713.57-1.172 1.341-1.172.913 0 1.399.602 1.399 1.484v.088zM242.051 162.173c0 .655-.452 1.341-1.365 1.341h-8.678c-.715 0-1.368-.655-1.368-1.368v-16.982c0-.713.653-1.372 1.368-1.372h8.678c.913 0 1.365.686 1.365 1.372 0 .655-.452 1.341-1.365 1.341h-7.306v5.511h4.967c.913 0 1.368.651 1.368 1.337s-.454 1.372-1.368 1.372h-4.967v6.077h7.306c.913-.001 1.365.685 1.365 1.371zM259.249 162.316c0 .713-.597 1.341-1.368 1.341h-.316c-.37 0-1.082-.085-1.542-1.14l-5.448-12.3v12.099c0 .913-.657 1.341-1.341 1.341-.686 0-1.399-.428-1.399-1.341v-17.267c0-.771.543-1.425 1.454-1.425h.314c.343 0 1.029 0 1.454.998l5.45 12.3v-11.926c0-.917.66-1.372 1.341-1.372.686 0 1.399.454 1.399 1.372v17.32h.002zM275.559 145.164c0 .655-.454 1.341-1.37 1.341h-2.711v15.81c0 .913-.681 1.341-1.368 1.341-.688 0-1.374-.428-1.374-1.341v-15.81h-2.707c-.913 0-1.372-.686-1.372-1.341 0-.686.459-1.372 1.372-1.372h8.159c.916 0 1.371.687 1.371 1.372zM292.527 149.615c0 2.455-1.457 4.539-3.626 5.279l3.257 6.824c.083.223.14.428.14.597 0 .771-.572 1.341-1.454 1.341-.459 0-.913-.201-1.171-.744l-3.68-7.76h-2.314v7.163c0 .913-.653 1.341-1.339 1.341-.713 0-1.399-.428-1.399-1.341v-17.152c0-.713.653-1.372 1.368-1.372h4.655a5.559 5.559 0 0 1 5.564 5.569v.255h-.001zm-2.739 0v-.254c0-1.599-1.172-2.856-2.74-2.856h-3.37v5.938h3.397c1.572 0 2.713-1.255 2.713-2.828zM310.176 162.173c0 .655-.454 1.341-1.365 1.341h-8.678c-.712 0-1.37-.655-1.37-1.368v-16.982c0-.713.657-1.372 1.37-1.372h8.678c.911 0 1.365.686 1.365 1.372 0 .655-.454 1.341-1.365 1.341h-7.306v5.511h4.967c.913 0 1.368.651 1.368 1.337s-.454 1.372-1.368 1.372h-4.967v6.077h7.306c.91-.001 1.365.685 1.365 1.371zM339.741 162.374c0 .771-.57 1.283-1.399 1.283-.543 0-1.087-.285-1.314-.971l-1.167-3.764h-6.34l-1.141 3.764c-.2.686-.797.971-1.341.971-.829 0-1.399-.539-1.399-1.256 0-.112.031-.254.056-.459l5.424-17.232c.227-.717.911-1.087 1.572-1.087.682 0 1.341.311 1.568 1.087l5.422 17.232c.027.204.059.347.059.432zm-4.743-6.166l-2.306-7.56-2.312 7.56h4.618zM356.934 158.119c0 3.083-2.482 5.538-5.562 5.538h-.285c-3.052 0-5.567-2.455-5.567-5.538v-13.124c0-.917.688-1.372 1.37-1.372.686 0 1.372.454 1.372 1.372v13.124c0 1.515 1.283 2.824 2.856 2.824h.254c1.514 0 2.822-1.31 2.822-2.824v-13.124c0-.917.688-1.372 1.374-1.372s1.365.454 1.365 1.372v13.124h.001zM373.246 145.164c0 .655-.454 1.341-1.368 1.341h-2.713v15.81c0 .913-.681 1.341-1.368 1.341-.686 0-1.372-.428-1.372-1.341v-15.81h-2.711c-.911 0-1.37-.686-1.37-1.341 0-.686.459-1.372 1.37-1.372h8.164c.914 0 1.368.687 1.368 1.372zM389.243 158.208c0 3.11-2.477 5.449-5.56 5.449h-.285c-3.056 0-5.569-2.339-5.569-5.449v-9.132c0-3.083 2.512-5.453 5.595-5.453h.259c3.082 0 5.56 2.37 5.56 5.453v9.132zm-2.735 0v-9.132c0-1.604-1.256-2.744-2.824-2.744h-.285c-1.577 0-2.825 1.171-2.825 2.744v9.132c0 1.595 1.248 2.767 2.825 2.767h.285c1.568 0 2.824-1.172 2.824-2.767zM410.725 162.316c0 .913-.686 1.341-1.372 1.341-.681 0-1.368-.428-1.368-1.341v-12.099l-3.083 7.132c-.263.575-.855.86-1.457.86-.57 0-1.14-.285-1.399-.86l-3.194-7.132v12.099c0 .913-.686 1.341-1.372 1.341-.682 0-1.368-.428-1.368-1.341v-17.321c0-.717.655-1.372 1.368-1.372h.343c.713 0 1.172.258 1.399.797l4.223 9.422 4.17-9.422c.254-.602.628-.797 1.399-.797h.339c.717 0 1.372.655 1.372 1.372v17.321zM428.977 158.208c0 3.11-2.482 5.449-5.565 5.449h-.285c-3.056 0-5.569-2.339-5.569-5.449v-9.132c0-3.083 2.513-5.453 5.596-5.453h.258c3.083 0 5.565 2.37 5.565 5.453v9.132zm-2.74 0v-9.132c0-1.604-1.256-2.744-2.825-2.744h-.285c-1.573 0-2.824 1.171-2.824 2.744v9.132c0 1.595 1.252 2.767 2.824 2.767h.285c1.569 0 2.825-1.172 2.825-2.767zM447.032 157.95a5.554 5.554 0 0 1-5.564 5.564h-4.255c-.771 0-1.368-.655-1.368-1.368v-16.982c0-.713.597-1.372 1.368-1.372h4.255c3.109 0 5.337 2.254 5.337 5.31 0 1.684-.686 3.252-2.027 4.196 1.341.998 2.254 2.682 2.254 4.393v.259zm-2.967-8.848c0-1.599-.998-2.597-2.597-2.597h-2.883v5.511h2.883c1.484 0 2.597-1.203 2.597-2.914zm.223 8.848v-.259c0-1.626-1.31-2.967-2.82-2.967h-2.883v6.077h2.883c1.599 0 2.82-1.309 2.82-2.851zM456.522 162.316c0 .913-.686 1.341-1.372 1.341s-1.368-.428-1.368-1.341v-17.321c0-.917.682-1.372 1.368-1.372s1.372.454 1.372 1.372v17.321zM474.341 162.173c0 .655-.459 1.341-1.372 1.341h-7.649c-.771 0-1.368-.655-1.368-1.368v-17.151c0-.917.686-1.372 1.368-1.372.686 0 1.341.454 1.341 1.372v15.806h6.308c.913 0 1.372.686 1.372 1.372zM491.533 162.173c0 .655-.454 1.341-1.368 1.341h-8.678c-.713 0-1.368-.655-1.368-1.368v-16.982c0-.713.655-1.372 1.368-1.372h8.678c.913 0 1.368.686 1.368 1.372 0 .655-.454 1.341-1.368 1.341h-7.306v5.511h4.963c.918 0 1.372.651 1.372 1.337s-.454 1.372-1.372 1.372h-4.963v6.077h7.306c.913-.001 1.368.685 1.368 1.371zM523.064 162.316c0 .913-.686 1.341-1.372 1.341-.682 0-1.368-.428-1.368-1.341v-12.099l-3.083 7.132c-.258.575-.855.86-1.457.86-.57 0-1.141-.285-1.399-.86l-3.194-7.132v12.099c0 .913-.686 1.341-1.372 1.341-.682 0-1.368-.428-1.368-1.341v-17.321c0-.717.655-1.372 1.368-1.372h.342c.713 0 1.172.258 1.399.797l4.223 9.422 4.169-9.422c.254-.602.628-.797 1.395-.797h.343c.717 0 1.372.655 1.372 1.372v17.321h.002zM541.69 158.119c0 3.083-2.486 5.538-5.564 5.538h-.285c-3.052 0-5.565-2.455-5.565-5.538v-13.124c0-.917.686-1.372 1.368-1.372.686 0 1.372.454 1.372 1.372v13.124c0 1.515 1.283 2.824 2.856 2.824h.254c1.515 0 2.82-1.31 2.82-2.824v-13.124c0-.917.691-1.372 1.377-1.372s1.368.454 1.368 1.372v13.124h-.001zM559.287 162.173c0 .655-.459 1.341-1.372 1.341h-7.649c-.771 0-1.368-.655-1.368-1.368v-17.151c0-.917.686-1.372 1.368-1.372.686 0 1.341.454 1.341 1.372v15.806h6.308c.913 0 1.372.686 1.372 1.372zM572.313 145.164c0 .655-.454 1.341-1.368 1.341h-2.713v15.81c0 .913-.682 1.341-1.368 1.341s-1.372-.428-1.372-1.341v-15.81h-2.713c-.909 0-1.368-.686-1.368-1.341 0-.686.459-1.372 1.368-1.372h8.166c.914 0 1.368.687 1.368 1.372zM580.693 162.316c0 .913-.691 1.341-1.377 1.341-.682 0-1.363-.428-1.363-1.341v-17.321c0-.917.681-1.372 1.363-1.372.686 0 1.377.454 1.377 1.372v17.321zM602.731 162.316c0 .913-.686 1.341-1.372 1.341-.682 0-1.368-.428-1.368-1.341v-12.099l-3.083 7.132c-.259.575-.855.86-1.457.86-.57 0-1.14-.285-1.399-.86l-3.199-7.132v12.099c0 .913-.682 1.341-1.368 1.341-.682 0-1.368-.428-1.368-1.341v-17.321c0-.717.655-1.372 1.368-1.372h.343c.713 0 1.172.258 1.399.797l4.223 9.422 4.17-9.422c.254-.602.628-.797 1.399-.797h.339c.717 0 1.372.655 1.372 1.372l.001 17.321zM622.582 162.374c0 .771-.57 1.283-1.399 1.283-.544 0-1.087-.285-1.314-.971l-1.167-3.764h-6.339l-1.14 3.764c-.201.686-.802.971-1.341.971-.828 0-1.399-.539-1.399-1.256 0-.112.031-.254.058-.459l5.422-17.232c.227-.717.913-1.087 1.572-1.087.682 0 1.341.311 1.568 1.087l5.422 17.232c.026.204.057.347.057.432zm-4.74-6.166l-2.307-7.56-2.312 7.56h4.619zM639.947 149.615c0 2.455-1.452 4.539-3.622 5.279l3.257 6.824c.084.223.142.428.142.597 0 .771-.575 1.341-1.457 1.341-.459 0-.913-.201-1.172-.744l-3.68-7.76h-2.312v7.163c0 .913-.655 1.341-1.341 1.341-.712 0-1.399-.428-1.399-1.341v-17.152c0-.713.655-1.372 1.368-1.372h4.655a5.555 5.555 0 0 1 5.56 5.569l.001.255zm-2.735 0v-.254c0-1.599-1.171-2.856-2.74-2.856h-3.368v5.938h3.395c1.573 0 2.713-1.255 2.713-2.828zM657.232 158.119c0 1.056-.258 2.027-.802 2.882l.317.343c.285.285.427.597.427.944 0 .766-.655 1.368-1.426 1.368-.37 0-.686-.143-.976-.397l-.307-.316a5.73 5.73 0 0 1-2.802.713h-.281c-3.056 0-5.564-2.455-5.564-5.538v-8.932a5.568 5.568 0 0 1 5.564-5.564h.281a5.553 5.553 0 0 1 5.569 5.564v8.933zm-2.739.027v-8.99c0-1.595-1.314-2.824-2.829-2.824h-.281c-1.515 0-2.825 1.314-2.825 2.824v8.99c0 1.515 1.31 2.829 2.825 2.829h.281c.263 0 .49-.031.717-.116l-.285-.285c-.285-.285-.432-.602-.432-.94 0-.771.659-1.426 1.43-1.426.37 0 .686.143.971.428l.312.312c.089-.258.116-.544.116-.802zM675.511 158.119c0 3.083-2.481 5.538-5.564 5.538h-.285c-3.052 0-5.569-2.455-5.569-5.538v-13.124c0-.917.686-1.372 1.372-1.372s1.372.454 1.372 1.372v13.124c0 1.515 1.283 2.824 2.851 2.824h.258c1.515 0 2.825-1.31 2.825-2.824v-13.124c0-.917.686-1.372 1.372-1.372s1.368.454 1.368 1.372v13.124zM694.133 162.173c0 .655-.459 1.341-1.368 1.341h-8.678c-.713 0-1.368-.655-1.368-1.368v-16.982c0-.713.655-1.372 1.368-1.372h8.678c.909 0 1.368.686 1.368 1.372 0 .655-.459 1.341-1.368 1.341h-7.306v5.511h4.967c.913 0 1.368.651 1.368 1.337s-.454 1.372-1.368 1.372h-4.967v6.077h7.306c.909-.001 1.368.685 1.368 1.371z"/></g><g><path d="M570.736 118.07c0 1.622-1.221 2.388-2.442 2.388-1.216 0-2.437-.766-2.437-2.388v-1.123c0-1.622 1.221-2.437 2.437-2.437 1.221 0 2.442.815 2.442 2.437v1.123zM586.952 87.173c0 1.218-.762 2.439-2.388 2.439-1.221 0-1.983.964-1.983 2.185v3.76h1.729c1.626 0 2.388 1.17 2.388 2.388 0 1.22-.762 2.439-2.388 2.439h-1.729v17.686c0 1.622-1.22 2.388-2.436 2.388-1.221 0-2.441-.766-2.441-2.388v-17.686h-.454c-1.626 0-2.392-1.218-2.392-2.439 0-1.219.766-2.388 2.392-2.388h.454v-3.811c0-3.862 2.388-6.961 6.86-6.961 1.626 0 2.388 1.167 2.388 2.388zM604.691 99.978c0 1.372-1.426 2.082-2.588 2.082-2.236 0-.917-1.829-3.608-1.829-1.426 0-2.593.508-2.593 2.285v15.445c0 1.679-1.269 2.494-2.49 2.494s-2.388-.815-2.388-2.494V97.844c0-1.626 1.167-2.441 2.437-2.441 1.172 0 2.036.256 2.441 1.018.557-.762 1.729-1.018 2.49-1.018 4.116 0 5.64 2.185 6.197 3.965.053.254.102.457.102.61z"/></g><path d="M47.461 120.667c-1.942-5.707-3.044-11.794-3.044-18.156 0-31.694 25.782-57.481 57.472-57.481s57.473 25.787 57.473 57.481c0 31.69-25.783 57.471-57.473 57.471-4.978 0-9.798-.668-14.405-1.862l-4.301 5.925c5.923 1.8 12.2 2.78 18.706 2.78 35.463 0 64.315-28.85 64.315-64.313 0-35.468-28.852-64.324-64.315-64.324s-64.315 28.856-64.315 64.324a63.993 63.993 0 0 0 3.326 20.424l6.561-2.269z"/><path d="M38.957 128.414a65.893 65.893 0 0 0 1.381 3.078l1.497 3.149 64.776-22.279-36.721 50.577a68.012 68.012 0 0 0 6.324 2.936l48.672-67.033-85.929 29.572z"/><path fill="none" d="M-55.071-53.983H786.78v313.91H-55.071z"/></svg>